<svg width="82" height="41" viewBox="0 0 82 41" fill="none" xmlns="http://www.w3.org/2000/svg">
<g filter="url(#filter0_d_209_3)">
<path fill-rule="evenodd" clip-rule="evenodd" d="M77.1437 27.0468V27.978C77.1437 28.0742 77.1056 28.1664 77.0376 28.2344C76.9696 28.3023 76.8774 28.3405 76.7812 28.3405H72.3625C72.3625 28.5718 72.3625 28.7718 72.3625 28.9655C72.3692 30.218 72.3067 31.4699 72.175 32.7155C72.1658 32.8056 72.1238 32.8892 72.0569 32.9503C71.9901 33.0114 71.9031 33.0457 71.8125 33.0468H70.8562C70.8111 33.046 70.7666 33.0363 70.7252 33.0182C70.6838 33.0002 70.6463 32.9742 70.615 32.9417C70.5836 32.9092 70.559 32.8708 70.5425 32.8288C70.526 32.7868 70.5179 32.7419 70.5187 32.6968C70.655 31.4703 70.7196 30.237 70.7125 29.003C70.7125 28.8093 70.7125 28.603 70.7125 28.378H66.3375C66.2414 28.378 66.1492 28.3398 66.0812 28.2719C66.0132 28.2039 65.975 28.1117 65.975 28.0155V27.0468C65.9742 26.9995 65.9828 26.9525 66.0003 26.9085C66.0178 26.8646 66.0439 26.8246 66.0771 26.7908C66.1103 26.7571 66.1498 26.7303 66.1935 26.712C66.2371 26.6937 66.2839 26.6843 66.3312 26.6843H70.6437C70.5553 25.1915 70.3632 23.7067 70.0687 22.2405C70.0539 22.1619 70.0705 22.0806 70.1149 22.014C70.1593 21.9474 70.228 21.9009 70.3062 21.8843H71.4062C71.4841 21.8846 71.5593 21.9124 71.6188 21.9627C71.6782 22.0129 71.718 22.0826 71.7312 22.1593C72.019 23.6556 72.2069 25.1693 72.2938 26.6905H76.775C76.8226 26.6897 76.8699 26.6983 76.9142 26.7157C76.9585 26.7332 76.9989 26.7592 77.0332 26.7923C77.0674 26.8253 77.0948 26.8649 77.1138 26.9085C77.1327 26.9522 77.1429 26.9992 77.1437 27.0468Z" fill="white"/>
</g>
<g filter="url(#filter1_d_209_3)">
<path d="M71.1312 19.6906C69.0157 14.5005 65.5266 9.98468 61.0384 6.62786C56.5502 3.27104 51.2325 1.20003 45.6562 0.637199C40.0799 0.0743629 34.4556 1.04095 29.3871 3.43319C24.3187 5.82542 19.9975 9.55296 16.8875 14.2156C16.8562 14.2618 16.8359 14.3146 16.8283 14.3698C16.8207 14.4251 16.826 14.4814 16.8437 14.5343C16.8617 14.5872 16.8912 14.6354 16.9301 14.6754C16.969 14.7154 17.0164 14.7462 17.0687 14.7656L17.875 15.0343C17.9678 15.0648 18.0681 15.0641 18.1605 15.0326C18.253 15.001 18.3326 14.9402 18.3875 14.8593C21.34 10.5133 25.4096 7.04355 30.1679 4.81539C34.9261 2.58722 40.1971 1.68302 45.4259 2.19797C50.6547 2.71292 55.648 4.62797 59.8802 7.74155C64.1124 10.8551 67.427 15.0521 69.475 19.8906C69.5068 19.9675 69.5605 20.0333 69.6294 20.08C69.6982 20.1267 69.7793 20.1521 69.8625 20.1531H70.8187C70.9083 20.1531 70.9941 20.1175 71.0574 20.0542C71.1207 19.9909 71.1562 19.9051 71.1562 19.8156C71.1621 19.7741 71.1621 19.732 71.1562 19.6906H71.1312ZM18.0062 14.8093C17.9837 14.8152 17.96 14.8152 17.9375 14.8093H18H18.0062Z" fill="url(#paint0_radial_209_3)"/>
</g>
<g filter="url(#filter2_d_209_3)">
<path d="M28.55 21.0656C28.55 21.0656 28.7812 20.7218 28.975 20.4406C29.4115 19.8781 29.9013 19.359 30.4375 18.8906L30.7562 18.6281C30.7562 18.6281 30.4875 18.6281 30.3375 18.6843C29.911 18.8103 29.5153 19.0231 29.175 19.3093C28.7375 19.6843 28.2562 20.2968 28.475 20.8406L28.55 21.0218V21.0656ZM30.9875 21.7218C31.6719 21.6714 32.3372 21.4731 32.9375 21.1406C33.5625 20.8093 34.4062 20.1593 34.3125 19.4031C34.3009 19.2888 34.258 19.1799 34.1885 19.0884C34.1191 18.9969 34.0257 18.9263 33.9187 18.8843C33.8026 18.833 33.677 18.8065 33.55 18.8065C33.423 18.8065 33.2974 18.833 33.1812 18.8843C32.9744 18.9389 32.7765 19.0231 32.5937 19.1343C31.7717 19.6497 31.0391 20.2957 30.425 21.0468C30.3062 21.2031 30.1812 21.3843 30.0875 21.5031C29.9937 21.6218 29.9812 21.6468 29.9875 21.6656C30.3158 21.737 30.6537 21.7539 30.9875 21.7156V21.7218ZM29.225 23.0093C29.1426 23.1362 29.0675 23.2677 29 23.4031C28.9559 23.4774 28.8988 23.543 28.8312 23.5968C28.7633 23.6648 28.6711 23.7029 28.575 23.7029C28.4789 23.7029 28.3867 23.6648 28.3187 23.5968C28.1987 23.4841 28.1021 23.3488 28.0346 23.1986C27.967 23.0485 27.9297 22.8864 27.925 22.7218C27.9375 22.5825 27.9375 22.4424 27.925 22.3031C27.8356 22.0793 27.7157 21.869 27.5687 21.6781C27.4319 21.4026 27.3492 21.1035 27.325 20.7968C27.328 20.4004 27.4115 20.0087 27.5705 19.6456C27.7295 19.2824 27.9607 18.9554 28.25 18.6843C28.8286 18.0803 29.5268 17.6035 30.3 17.2843C31.1243 16.9078 32.0518 16.8219 32.9312 17.0406C33.2473 17.1527 33.5293 17.3443 33.75 17.5968C33.7823 17.6429 33.8201 17.6848 33.8625 17.7218C33.929 17.7453 33.9984 17.76 34.0687 17.7656C34.3552 17.8323 34.6239 17.9602 34.8562 18.1406C35.1374 18.3606 35.3322 18.6726 35.4062 19.0218C35.4479 19.3969 35.4012 19.7765 35.2698 20.1303C35.1385 20.4841 34.9262 20.8022 34.65 21.0593C33.9008 21.8776 32.9784 22.5182 31.95 22.9343C31.403 23.1494 30.8188 23.2535 30.2312 23.2406C30.0687 23.2406 29.9 23.1843 29.7375 23.1718C29.5972 23.1482 29.4592 23.1127 29.325 23.0656C29.2875 23.0343 29.2437 23.0093 29.225 23.0218V23.0093ZM30.1687 24.6468C30.2121 24.6526 30.2543 24.6653 30.2937 24.6843C30.4628 24.7629 30.6089 24.8834 30.7183 25.0344C30.8277 25.1853 30.8967 25.3617 30.9187 25.5468C31.1115 26.7357 31.2221 27.9365 31.25 29.1406C31.25 29.7093 31.2875 30.2656 31.3125 30.8281C31.3578 31.3468 31.3431 31.869 31.2687 32.3843C31.2306 32.5641 31.1256 32.7227 30.975 32.8281C30.7217 32.9322 30.4432 32.9583 30.175 32.9031C29.6312 32.7906 29.4562 32.4406 29.375 31.9031C29.2308 30.2855 29.2308 28.6582 29.375 27.0406C29.4393 26.3763 29.5648 25.7193 29.75 25.0781C29.8125 24.9156 29.9437 24.5968 30.1812 24.6468H30.1687ZM13.4125 26.5718C13.4125 26.5718 12.6125 26.6281 12.0562 26.6906C11.109 26.7944 10.1737 26.9869 9.26249 27.2656C9.03749 27.3531 8.56873 27.5406 8.52498 27.7781C8.52392 27.8964 8.54851 28.0135 8.59706 28.1214C8.64562 28.2293 8.71698 28.3254 8.80623 28.4031C8.90623 28.5218 9.43123 29.0281 9.61248 29.1843C10.5128 29.8961 11.4972 30.4944 12.5437 30.9656C12.875 31.1031 13.425 31.2968 13.425 31.2968C13.425 31.2968 13.3875 29.7343 13.425 28.1718C13.425 27.3531 13.425 26.5468 13.425 26.5468L13.4125 26.5718ZM28.175 27.1968C28.1899 27.6401 28.1627 28.0837 28.0937 28.5218C28.0324 28.8152 27.9488 29.1036 27.8437 29.3843C27.711 29.6916 27.5629 29.9919 27.4 30.2843C27.0538 30.854 26.6334 31.3753 26.15 31.8343C24.5888 33.018 22.7308 33.7469 20.7812 33.9406C19.4472 34.0982 18.0973 34.0581 16.775 33.8218L15.6437 33.5843C15.6518 33.7384 15.6518 33.8928 15.6437 34.0468C15.6216 34.18 15.5839 34.31 15.5312 34.4343C15.4856 34.5269 15.4178 34.6067 15.3338 34.6667C15.2499 34.7267 15.1523 34.765 15.05 34.7781C14.7677 34.86 14.4673 34.8556 14.1875 34.7656C14.0012 34.6662 13.845 34.5187 13.7351 34.3384C13.6251 34.1581 13.5655 33.9517 13.5625 33.7406C13.5 33.3781 13.4375 32.7468 13.4375 32.7468L12.875 32.4406C12.0883 32.0511 11.3375 31.5931 10.6312 31.0718C10.2375 30.7593 9.84998 30.4468 9.47498 30.0968C8.98153 29.6542 8.55984 29.1377 8.22498 28.5656C8.09153 28.365 8.00922 28.1349 7.98525 27.8952C7.96128 27.6555 7.99638 27.4136 8.08748 27.1906C8.36248 26.5031 9.33748 25.9843 10.0312 25.6906C10.8994 25.34 11.7966 25.066 12.7125 24.8718C13.0125 24.8281 13.4812 24.7468 13.5125 24.7281C13.5125 24.7281 13.55 24.0218 13.5125 23.7781C13.475 23.5343 13.6937 21.9031 13.7562 21.5781C13.8088 21.2047 13.914 20.8407 14.0687 20.4968C14.118 20.4423 14.1862 20.4087 14.2594 20.4029C14.3326 20.3971 14.4053 20.4195 14.4625 20.4656C15.1937 20.9218 15.4187 22.5093 15.475 23.3156C15.475 23.8031 15.525 24.5656 15.525 24.5656C15.525 24.5656 16.3687 24.5656 16.8875 24.5656C17.4175 24.5902 17.9455 24.6466 18.4687 24.7343C19.4089 24.8763 20.3269 25.1389 21.2 25.5156C21.8138 25.7979 22.3045 26.293 22.5812 26.9093C22.6697 27.1234 22.705 27.3557 22.6844 27.5864C22.6637 27.8171 22.5876 28.0394 22.4625 28.2343C22.3124 28.4863 22.1053 28.6996 21.8578 28.857C21.6103 29.0144 21.3293 29.1115 21.0375 29.1406C20.689 29.1397 20.3451 29.0607 20.0312 28.9093C20.0148 28.8936 20.0017 28.8747 19.9928 28.8537C19.9838 28.8328 19.9792 28.8102 19.9792 28.7875C19.9792 28.7647 19.9838 28.7421 19.9928 28.7212C20.0017 28.7003 20.0148 28.6813 20.0312 28.6656C20.0312 28.6656 20.35 28.4843 20.525 28.3906C20.6092 28.3474 20.687 28.2927 20.7562 28.2281C20.9062 28.0968 21.0375 27.9531 21.025 27.7906C21.0125 27.6281 20.775 27.4468 20.5562 27.3593C19.2412 26.9297 17.8794 26.659 16.5 26.5531L15.5625 26.5156L15.6812 31.9656L16.4937 32.1093C16.6937 32.1406 17.5687 32.2156 17.8 32.2218C19.6246 32.3411 21.4524 32.0418 23.1437 31.3468C23.8526 31.0434 24.491 30.5965 25.0187 30.0343C25.3498 29.6474 25.6 29.1981 25.7546 28.7129C25.9092 28.2277 25.965 27.7165 25.9187 27.2093C25.6932 25.9656 25.1508 24.801 24.3437 23.8281C22.6187 21.6093 19.6562 19.7781 17.0562 18.7093C14.4798 17.6171 11.7273 16.9989 8.93124 16.8843C7.88416 16.8421 6.83569 16.9197 5.80624 17.1156L5.46874 17.2093C5.38044 17.2317 5.29612 17.2675 5.21873 17.3156L5.18124 17.3531C5.21046 17.3733 5.24192 17.3901 5.27498 17.4031C5.36248 17.4406 5.71873 17.4593 5.89998 17.4968C6.06117 17.52 6.20693 17.6053 6.30623 17.7343C6.34075 17.7767 6.3596 17.8297 6.3596 17.8843C6.3596 17.939 6.34075 17.992 6.30623 18.0343C6.11873 18.2593 5.44374 18.2218 5.13749 18.1718C4.83124 18.1218 4.43748 18.0281 4.36248 17.7531C4.31433 17.4263 4.39747 17.0937 4.59373 16.8281C4.75387 16.5533 4.97029 16.3155 5.2288 16.1302C5.48731 15.9449 5.78207 15.8164 6.09374 15.7531C7.12794 15.4793 8.1878 15.3138 9.25623 15.2593C11.3313 15.2078 13.4001 15.5079 15.375 16.1468C16.6815 16.5517 17.9576 17.0488 19.1937 17.6343C20.1502 18.1026 21.0807 18.6221 21.9812 19.1906C22.2062 19.3343 23.5187 20.2968 23.725 20.4718C24.15 20.8156 24.7062 21.3156 25.1062 21.7218C25.976 22.5792 26.7227 23.5531 27.325 24.6156C27.4375 24.8406 27.525 25.0593 27.6687 25.3218C27.787 25.5727 27.8873 25.8317 27.9687 26.0968C28.0062 26.2531 28.0562 26.4781 28.0625 26.4843C28.1206 26.72 28.1561 26.9607 28.1687 27.2031L28.175 27.1968ZM37.25 27.5906H37.3375C37.9407 27.6527 38.5333 27.7934 39.1 28.0093C39.517 28.1816 39.8555 28.5022 40.05 28.9093C40.2202 29.2218 40.3229 29.5665 40.3516 29.9211C40.3802 30.2758 40.3342 30.6325 40.2164 30.9683C40.0986 31.304 39.9116 31.6113 39.6677 31.8703C39.4237 32.1293 39.1281 32.3342 38.8 32.4718C38.3108 32.6982 37.7866 32.8398 37.25 32.8906C36.2136 32.9899 35.1697 32.804 34.2312 32.3531C33.6063 32.0733 33.0748 31.6199 32.7 31.0468C32.572 30.8353 32.5097 30.5906 32.5208 30.3436C32.5319 30.0966 32.616 29.8585 32.7625 29.6593C33.2312 29.0343 34.25 28.8656 35.0125 28.8906C35.7547 28.9385 36.4888 29.0727 37.2 29.2906C37.4866 29.3859 37.7613 29.5139 38.0187 29.6718C38.0563 29.7031 38.0844 29.7442 38.0999 29.7906C38.1153 29.837 38.1175 29.8868 38.1062 29.9343C37.9812 30.3218 37.0375 30.5281 36.7687 30.5593C36.0437 30.6718 35.6625 30.3968 34.8375 30.0718C34.6155 29.9789 34.3823 29.9159 34.1437 29.8843C33.7687 29.8468 33.3187 29.9531 33.2437 30.3593C33.2437 30.5718 33.4562 30.7718 33.6437 30.8531C34.0364 31.0304 34.4629 31.12 34.8937 31.1156C36.2249 31.2041 37.5508 30.8765 38.6875 30.1781C38.7674 30.1325 38.8352 30.0684 38.8853 29.9912C38.9353 29.914 38.9661 29.8259 38.975 29.7343C38.975 29.7343 38.975 29.5093 38.875 29.4843C38.875 29.4843 38.8125 29.4093 38.775 29.3718C38.6412 29.2655 38.4915 29.1811 38.3312 29.1218C37.4584 28.8408 36.5531 28.6727 35.6375 28.6218C34.925 28.5593 33.8062 28.4718 33.5437 28.4281C33.2629 28.3993 32.9874 28.332 32.725 28.2281C32.5945 28.1685 32.478 28.082 32.3832 27.9743C32.2884 27.8666 32.2175 27.7401 32.175 27.6031C32.0785 27.0923 32.1887 26.564 32.4812 26.1343C33.1875 25.1218 34.8375 24.7406 36.0687 24.5843C37.3 24.4281 39.1937 24.4343 40.3625 25.0593C40.5437 25.1531 40.6375 25.2468 40.6 25.4406C40.5598 25.6077 40.4754 25.7609 40.3555 25.8841C40.2356 26.0073 40.0847 26.0959 39.9187 26.1406C39.4643 26.238 39.002 26.2944 38.5375 26.3093C37.0382 26.299 35.5416 26.4351 34.0687 26.7156C33.9463 26.742 33.8298 26.7907 33.725 26.8593C33.5125 27.0906 34.1187 27.1531 34.2437 27.1843H34.3312L37.3062 27.5343L37.25 27.5906ZM41.6562 32.8906C41.0875 32.6843 40.9562 31.7656 40.9312 31.2968C40.9054 29.5805 41.1826 27.8731 41.75 26.2531C41.8937 25.8468 42.1062 25.1843 42.5562 25.2218C42.706 25.2503 42.8475 25.3116 42.9707 25.4013C43.0939 25.491 43.1957 25.6068 43.2687 25.7406C43.75 26.4218 44.225 27.1156 44.6937 27.8156C45.1625 28.5156 45.5437 29.1531 45.9437 29.7593C45.9852 29.8318 46.038 29.8972 46.1 29.9531C46.175 30.0156 46.2437 30.0156 46.2687 29.9531C46.2854 29.6387 46.2854 29.3237 46.2687 29.0093C46.2375 28.7656 46.225 28.5718 46.1937 28.3843C46.0921 27.6917 45.9523 27.0053 45.775 26.3281C45.6 25.7031 45.3937 24.9968 45.2437 24.3656C45.1867 24.1619 45.1552 23.952 45.15 23.7406C45.1392 23.6806 45.1459 23.6188 45.1692 23.5625C45.1925 23.5061 45.2314 23.4577 45.2814 23.4228C45.3314 23.388 45.3903 23.3682 45.4512 23.3658C45.5121 23.3634 45.5724 23.3785 45.625 23.4093C46.2062 23.6156 46.975 24.8781 47.2 25.2843C47.275 25.4281 47.575 26.1781 47.65 26.3906C47.8877 27.1011 48.0388 27.8376 48.1 28.5843C48.1889 29.4717 48.0823 30.3677 47.7875 31.2093C47.6496 31.5203 47.457 31.804 47.2187 32.0468C47.0385 32.2214 46.8121 32.3407 46.5662 32.3906C46.3202 32.4404 46.0652 32.4187 45.8312 32.3281C45.2683 31.7825 44.7976 31.1493 44.4375 30.4531C43.9812 29.6593 43.1875 28.1031 43.0812 27.9531C43.0498 27.9101 43.0063 27.8775 42.9562 27.8593C42.9125 27.8593 42.8937 27.9406 42.8812 28.0031C42.8 28.4593 42.75 30.5718 42.75 30.6343C42.7478 31.1892 42.7018 31.743 42.6125 32.2906C42.55 32.5718 42.4812 32.8031 42.2187 32.9156C42.1311 32.9508 42.0367 32.9657 41.9426 32.9592C41.8484 32.9527 41.7569 32.925 41.675 32.8781L41.6562 32.8906ZM49.5187 32.6156C49.4371 32.5454 49.3598 32.4703 49.2875 32.3906C49.1939 32.2561 49.1084 32.1163 49.0312 31.9718C48.9937 31.8906 48.9687 31.8343 48.9437 31.7656C48.7728 31.2925 48.7446 30.7796 48.8625 30.2906C48.9715 29.8891 49.1158 29.498 49.2937 29.1218C49.3001 29.0867 49.3001 29.0507 49.2937 29.0156C49.2937 28.9218 49.1562 28.3156 49.15 28.1156C49.15 27.8156 49.3687 27.6031 49.775 27.5656H49.8562C50.0125 27.5281 50.1187 27.2281 50.2 26.9906L50.5 26.1468C50.2437 26.0843 49.9937 26.0156 49.7437 25.9343C49.4758 25.846 49.252 25.658 49.1187 25.4093C48.9625 25.0906 49.0687 24.9156 49.4 24.8156C49.5187 24.7718 50.475 24.5906 50.775 24.5468L51.8687 24.4031C52.1812 24.3656 53.6062 24.1968 54.0625 24.2093C54.3765 24.2096 54.6849 24.2923 54.9569 24.4492C55.2289 24.606 55.4549 24.8315 55.6125 25.1031C55.8312 25.4156 55.9812 25.7906 55.65 25.9906C55.1437 26.2968 53.5062 26.3218 53.2062 26.3218H52.0625L51.7312 27.4406H53.5625C53.6986 27.4383 53.8346 27.4488 53.9687 27.4718C54.3062 27.5468 54.425 27.8031 54.4375 28.1781C54.45 28.5531 54.375 28.8031 54.025 28.8656C53.85 28.8968 51.8312 28.9093 51.525 28.9406L51.175 28.9843C51.175 28.9843 51.0312 29.3656 50.9062 29.7531C50.7812 30.1406 50.6687 30.5593 50.6687 30.5593H50.8562C50.9886 30.5571 51.1204 30.5425 51.25 30.5156C51.875 30.4093 52.7812 30.2718 53.5312 30.1531C53.9375 30.0906 54.1562 30.0593 54.35 30.3281C54.5306 30.5249 54.6348 30.7799 54.6437 31.0468C54.6437 31.3156 54.45 31.4906 54.2 31.6718C53.2779 32.3643 52.2085 32.8348 51.075 33.0468C50.74 33.0921 50.399 33.0557 50.0812 32.9406C49.9569 32.897 49.8375 32.8404 49.725 32.7718C49.725 32.7718 49.575 32.6843 49.5187 32.6406V32.6156ZM62.25 27.1343C61.6866 27.6734 61.1817 28.2705 60.7437 28.9156C60.3125 29.5406 59.9125 30.2281 59.4937 30.7906C59.3757 30.9766 59.2672 31.1685 59.1687 31.3656C59.3419 31.4015 59.5206 31.4015 59.6937 31.3656C60.3072 31.2246 60.8843 30.9563 61.3875 30.5781C62.0046 30.0861 62.4436 29.4056 62.6375 28.6406C62.7674 28.1665 62.7254 27.6616 62.5187 27.2156C62.4858 27.1759 62.4388 27.1505 62.3875 27.1447C62.3363 27.1389 62.2848 27.1531 62.2437 27.1843L62.25 27.1343ZM58.125 33.3843C58.125 33.3843 57.9625 33.8656 57.8437 34.2468C57.6312 34.8718 57.175 36.6593 57.0625 37.2031C56.9062 38.0156 56.4375 40.1468 56.4375 40.1906C56.4114 40.2469 56.3675 40.2931 56.3125 40.3218C56.125 40.4281 56.05 40.3906 55.8187 40.2718C55.5164 40.1249 55.2514 39.9112 55.0437 39.6468C54.6 39.0718 54.7062 37.9843 54.7937 37.3468C55.0241 35.4808 55.5165 33.6566 56.2562 31.9281C56.2623 31.9154 56.2655 31.9015 56.2655 31.8875C56.2655 31.8734 56.2623 31.8595 56.2562 31.8468C55.9945 31.2869 55.8559 30.6774 55.85 30.0593C55.85 28.3218 56.85 26.6093 57.9687 25.2281C58.05 25.1218 58.5937 24.4656 58.85 24.4781C59.1062 24.4906 59.1437 24.7843 59.1062 25.0281C58.88 25.849 58.5143 26.6249 58.025 27.3218C57.6983 27.8721 57.4501 28.4654 57.2875 29.0843C57.2323 29.3063 57.1926 29.5318 57.1687 29.7593C57.1687 29.9468 57.2187 30.1843 57.2187 30.1843C57.2187 30.1843 57.925 29.1906 58.3937 28.5843C58.6437 28.2531 58.8312 28.0281 59.0187 27.7906C59.4312 27.3343 59.8625 26.8906 60.2687 26.4593C60.6293 26.0732 61.0517 25.75 61.5187 25.5031C61.7028 25.377 61.9207 25.3096 62.1437 25.3096C62.3668 25.3096 62.5847 25.377 62.7687 25.5031C63.0784 25.762 63.3299 26.0836 63.5065 26.4466C63.6832 26.8096 63.7811 27.2058 63.7937 27.6093C63.8743 28.5246 63.7059 29.4445 63.3062 30.2718C62.8518 31.1487 62.1695 31.8871 61.3312 32.4093C60.466 33.0181 59.439 33.3554 58.3812 33.3781H58.0812L58.125 33.3843Z" fill="white"/>
</g>
<defs>
<filter id="filter0_d_209_3" x="61.9749" y="21.8843" width="19.1688" height="19.1626" filterUnits="userSpaceOnUse" color-interpolation-filters="sRGB">
<feFlood flood-opacity="0" result="BackgroundImageFix"/>
<feColorMatrix in="SourceAlpha" type="matrix" values="0 0 0 0 0 0 0 0 0 0 0 0 0 0 0 0 0 0 127 0" result="hardAlpha"/>
<feOffset dy="4"/>
<feGaussianBlur stdDeviation="2"/>
<feComposite in2="hardAlpha" operator="out"/>
<feColorMatrix type="matrix" values="0 0 0 0 0 0 0 0 0 0 0 0 0 0 0 0 0 0 0.25 0"/>
<feBlend mode="normal" in2="BackgroundImageFix" result="effect1_dropShadow_209_3"/>
<feBlend mode="normal" in="SourceGraphic" in2="effect1_dropShadow_209_3" result="shape"/>
</filter>
<filter id="filter1_d_209_3" x="12.825" y="0.481201" width="62.3357" height="27.6719" filterUnits="userSpaceOnUse" color-interpolation-filters="sRGB">
<feFlood flood-opacity="0" result="BackgroundImageFix"/>
<feColorMatrix in="SourceAlpha" type="matrix" values="0 0 0 0 0 0 0 0 0 0 0 0 0 0 0 0 0 0 127 0" result="hardAlpha"/>
<feOffset dy="4"/>
<feGaussianBlur stdDeviation="2"/>
<feComposite in2="hardAlpha" operator="out"/>
<feColorMatrix type="matrix" values="0 0 0 0 0 0 0 0 0 0 0 0 0 0 0 0 0 0 0.25 0"/>
<feBlend mode="normal" in2="BackgroundImageFix" result="effect1_dropShadow_209_3"/>
<feBlend mode="normal" in="SourceGraphic" in2="effect1_dropShadow_209_3" result="shape"/>
</filter>
<filter id="filter2_d_209_3" x="0.349121" y="15.2537" width="67.4643" height="33.1306" filterUnits="userSpaceOnUse" color-interpolation-filters="sRGB">
<feFlood flood-opacity="0" result="BackgroundImageFix"/>
<feColorMatrix in="SourceAlpha" type="matrix" values="0 0 0 0 0 0 0 0 0 0 0 0 0 0 0 0 0 0 127 0" result="hardAlpha"/>
<feOffset dy="4"/>
<feGaussianBlur stdDeviation="2"/>
<feComposite in2="hardAlpha" operator="out"/>
<feColorMatrix type="matrix" values="0 0 0 0 0 0 0 0 0 0 0 0 0 0 0 0 0 0 0.25 0"/>
<feBlend mode="normal" in2="BackgroundImageFix" result="effect1_dropShadow_209_3"/>
<feBlend mode="normal" in="SourceGraphic" in2="effect1_dropShadow_209_3" result="shape"/>
</filter>
<radialGradient id="paint0_radial_209_3" cx="0" cy="0" r="1" gradientUnits="userSpaceOnUse" gradientTransform="translate(70.4682 20.0058) scale(53.3192 53.3193)">
<stop offset="0.06" stop-color="white"/>
<stop offset="0.08" stop-color="#CBFFFF"/>
<stop offset="0.1" stop-color="#96FFFF"/>
<stop offset="0.12" stop-color="#68FFFF"/>
<stop offset="0.14" stop-color="#43FFFF"/>
<stop offset="0.17" stop-color="#25FFFF"/>
<stop offset="0.19" stop-color="#11FFFF"/>
<stop offset="0.21" stop-color="#04FFFF"/>
<stop offset="0.23" stop-color="#00FFFF"/>
<stop offset="1" stop-color="#0000FF" stop-opacity="0"/>
</radialGradient>
</defs>
</svg>
