<svg width="14" height="8" viewBox="0 0 14 8" fill="none" xmlns="http://www.w3.org/2000/svg">
<path d="M12.5231 0.419578C12.5939 0.353545 12.679 0.304778 12.7718 0.277087C12.8646 0.249396 12.9625 0.243532 13.0579 0.259951C13.1533 0.276371 13.2436 0.31463 13.3218 0.371739C13.4 0.428848 13.4639 0.50326 13.5086 0.589161C13.5935 0.739522 13.6261 0.91385 13.6012 1.08475C13.5763 1.25565 13.4954 1.41344 13.3711 1.53333L7.37605 6.95999C7.26029 7.06596 7.10904 7.12473 6.9521 7.12473C6.79516 7.12473 6.6439 7.06596 6.52814 6.95999L0.569804 1.53333C0.446909 1.41247 0.367284 1.25447 0.343256 1.08378C0.319227 0.913097 0.352136 0.739252 0.436888 0.589161C0.48154 0.50326 0.545451 0.428848 0.623626 0.371739C0.701801 0.31463 0.792123 0.276371 0.887533 0.259951C0.982944 0.243532 1.08086 0.249396 1.17363 0.277087C1.2664 0.304778 1.35151 0.353545 1.4223 0.419578L6.97272 5.46124L12.5231 0.419578ZM6.84897 6.40083C6.87928 6.37778 6.91631 6.3653 6.95439 6.3653C6.99247 6.3653 7.02949 6.37778 7.0598 6.40083L6.95439 6.30458L6.84897 6.40083Z" fill="#C0C0C0"/>
</svg>
