<svg width="45" height="10" viewBox="0 0 45 10" fill="none" xmlns="http://www.w3.org/2000/svg">
<path fill-rule="evenodd" clip-rule="evenodd" d="M26.375 3.84688C26.375 3.84688 26.3375 4.18438 26.2813 4.55938C26.2239 4.95387 26.0132 5.30977 25.6948 5.5497C25.3765 5.78964 24.9763 5.89419 24.5813 5.84063H20.925L20.5125 9.10938H17.6L18.25 3.84688H26.375ZM9.19375 3.84688H15.5938C16.5063 3.84688 17.6687 4.24062 17.4375 5.89062C17.3761 6.5674 17.2611 7.23826 17.0937 7.89688C16.6062 9.05938 15.1563 9.09688 14.95 9.10938H8.50625L8.79375 6.82812H14.4625L14.5875 5.84063H10.6438C9.65625 5.84063 8.95625 5.22188 9.16875 3.84688H9.19375ZM8.60625 3.84688L8.35625 5.84063H3.475L3.35 6.82812H8.23125L7.9375 9.10938H0.125L0.793755 3.84688H8.60625ZM26.9687 3.84688H29.8813L29.2188 9.10938H26.3L26.9687 3.84688ZM32.5 3.84688H35.4125L34.75 9.10938H31.8125L32.475 3.84688H32.5ZM1.25 0.515625H9.04375L8.7375 2.92813H0.90625L1.2125 0.515625H1.25ZM24.625 0.515625C26.25 0.515625 26.6875 1.44687 26.5562 2.47812C26.5562 2.65937 26.5062 2.87187 26.5 2.92187H9.2875C9.2875 2.92187 9.33125 2.59063 9.375 2.21563C9.49375 1.22813 10.3125 0.559375 11.5562 0.515625H24.5875H24.625ZM33.75 0.515625C34.7562 0.515625 35.8 0.978125 35.5938 2.55938C35.5563 2.84063 35.55 2.92813 35.55 2.92813H27.0562L27.3625 0.515625H33.75Z" fill="white"/>
<path fill-rule="evenodd" clip-rule="evenodd" d="M42.125 3.72822L42.4 1.58447H40.0812L39.8125 3.72822H37.625L37.3625 5.85947H39.5375L39.275 8.01572H41.5875L41.8688 5.83447H44.05L44.3187 3.70322L42.125 3.72822Z" fill="#F9B300"/>
</svg>
