<svg width="19" height="19" viewBox="0 0 19 19" fill="none" xmlns="http://www.w3.org/2000/svg">
<path d="M9.30238 2.33428C11.0221 2.33669 12.6796 2.97774 13.9534 4.13306C15.2272 5.28839 16.0265 6.87565 16.1962 8.58695C16.366 10.2982 15.8941 12.0116 14.8721 13.3947C13.85 14.7777 12.3508 15.7319 10.6651 16.0721C8.97935 16.4123 7.22737 16.1143 5.74895 15.2358C4.27054 14.3574 3.17108 12.9612 2.66384 11.318C2.15661 9.67479 2.27775 7.90177 3.00378 6.34285C3.72981 4.78393 5.00896 3.55022 6.59312 2.88105C7.45023 2.51838 8.3717 2.33242 9.30238 2.33428ZM9.30238 1.49817C4.99513 1.49817 1.50525 4.98932 1.50525 9.29555C1.50525 13.6018 4.99615 17.0927 9.30238 17.0927C13.6086 17.0927 17.101 13.6018 17.101 9.29555C17.101 4.98932 13.6089 1.49817 9.30238 1.49817Z" fill="#C0C0C0"/>
<path d="M9.96872 1.96359C9.96872 1.96359 12.7051 3.45846 12.7051 9.4886C12.7051 15.0627 9.76602 16.6589 9.76602 16.6589" stroke="#C0C0C0" stroke-width="0.836112" stroke-miterlimit="10"/>
<path d="M8.76295 1.96359C8.76295 1.96359 5.82617 3.45846 5.82617 9.4886C5.82617 15.0627 8.9806 16.6589 8.9806 16.6589" stroke="#C0C0C0" stroke-width="0.836112" stroke-miterlimit="10"/>
<path d="M3.03912 5.34604C3.03912 5.34604 5.8515 5.95412 9.2973 5.95412C12.6924 5.95412 15.3528 5.34604 15.3528 5.34604" stroke="#C0C0C0" stroke-width="0.836112" stroke-miterlimit="10"/>
<path d="M15.3528 13.2004C15.3528 13.2004 12.5404 12.5923 9.0946 12.5923C5.69948 12.5923 3.03912 13.2004 3.03912 13.2004" stroke="#C0C0C0" stroke-width="0.836112" stroke-miterlimit="10"/>
<path d="M2.00034 9.29858H16.5943" stroke="#C0C0C0" stroke-width="0.836112" stroke-miterlimit="10"/>
</svg>
