<svg width="31" height="12" viewBox="0 0 31 12" fill="none" xmlns="http://www.w3.org/2000/svg">
<path d="M18.8437 11.4031H21.2875V0.640625H18.8375V11.4031H18.8437ZM14.5375 8.33438C14.5428 8.50827 14.4808 8.6775 14.3643 8.80676C14.2479 8.93601 14.086 9.01532 13.9125 9.02812H12.4625C12.284 9.0216 12.1152 8.94524 11.9925 8.81548C11.8697 8.68573 11.8029 8.51296 11.8062 8.33438V3.99687H9.375V8.54688C9.375 10.4219 10.5 11.3906 12.15 11.3906H14.5438C16.0688 11.3906 16.9938 10.2219 16.9938 8.54688V3.99687H14.525C14.525 3.99687 14.5375 8.19688 14.5375 8.33438ZM28.2875 3.99687V8.33438C28.2913 8.50786 28.2287 8.67625 28.1126 8.80517C27.9964 8.9341 27.8354 9.01384 27.6625 9.02812H26.25C26.0771 9.01384 25.9161 8.9341 25.7999 8.80517C25.6838 8.67625 25.6212 8.50786 25.625 8.33438V3.99687H23.125V8.54688C23.125 10.4219 24.25 11.3906 25.9063 11.3906H28.2938C29.8188 11.3906 30.7437 10.2219 30.7437 8.54688V3.99687H28.2875ZM4.81875 3.99687H3.275C2.99207 3.98193 2.70956 4.0333 2.45 4.14688V0.640625H0V11.3906H2.4375V7.06562C2.43373 6.89214 2.4963 6.72375 2.61245 6.59483C2.72859 6.4659 2.88956 6.38616 3.0625 6.37187H4.5125C4.68544 6.38616 4.84641 6.4659 4.96255 6.59483C5.0787 6.72375 5.14127 6.89214 5.1375 7.06562V11.4031H7.5875V6.71563C7.5875 4.75313 6.3375 3.99687 4.8125 3.99687H4.81875Z" fill="#1CE783"/>
</svg>
